<?xml version="1.0" encoding="UTF-8" standalone="no"?>
<!-- Created with Inkscape (http://www.inkscape.org/) -->

<svg
   width="16.933332mm"
   height="16.933334mm"
   viewBox="0 0 16.933332 16.933334"
   version="1.1"
   id="svg687"
   inkscape:version="1.2.1 (9c6d41e410, 2022-07-14)"
   sodipodi:docname="fb-logo2.svg"
   xmlns:inkscape="http://www.inkscape.org/namespaces/inkscape"
   xmlns:sodipodi="http://sodipodi.sourceforge.net/DTD/sodipodi-0.dtd"
   xmlns="http://www.w3.org/2000/svg"
   xmlns:svg="http://www.w3.org/2000/svg">
  <sodipodi:namedview
     id="namedview689"
     pagecolor="#ffffff"
     bordercolor="#000000"
     borderopacity="0.25"
     inkscape:showpageshadow="2"
     inkscape:pageopacity="0.0"
     inkscape:pagecheckerboard="0"
     inkscape:deskcolor="#d1d1d1"
     inkscape:document-units="mm"
     showgrid="false"
     inkscape:zoom="2.9825758"
     inkscape:cx="31.851664"
     inkscape:cy="42.580645"
     inkscape:window-width="1350"
     inkscape:window-height="973"
     inkscape:window-x="293"
     inkscape:window-y="25"
     inkscape:window-maximized="0"
     inkscape:current-layer="layer1" />
  <defs
     id="defs684" />
  <g
     inkscape:label="Layer 1"
     inkscape:groupmode="layer"
     id="layer1">
    <path
       d="M 11.355478,8.5375846 C 9.2612715,9.1566966 7.1670665,10.47042 7.1670665,11.149931 c 0,0.483209 0.486154,0.604011 0.991008,0.241605 0.224379,-0.166103 0.598344,-0.392607 0.841421,-0.483208 0.22438,-0.0906 0.411363,-0.302006 0.411363,-0.453009 0,-0.9211164 3.8892395,-2.1291374 5.6842725,-1.7667314 0.280473,0.0604 0.598344,0.271805 0.710533,0.468109 0.317871,0.573809 -0.486155,1.3137234 -2.187696,1.9630344 -1.40237,0.54361 -1.645448,0.785214 -1.140595,1.11742 0.205681,0.151002 0.448758,0.151002 1.009707,0 0.934913,-0.226504 1.589352,-0.0906 1.888524,0.377506 0.747931,1.11742 -1.776335,3.080455 -4.337997,3.35226 -0.97231,0.105702 -1.2714825,-0.105702 -0.766629,-0.55871 0.43006,-0.377507 1.795034,-0.996617 2.711249,-1.223122 0.86012,-0.196303 0.86012,-0.513409 0.0187,-0.483209 -1.364973,0.0604 -3.5900675,1.343924 -3.5900675,2.068737 0,0.483209 0.9723105,1.162721 1.6641465,1.162721 1.495861,0 4.113618,-1.177821 5.011135,-2.249939 0.766628,-0.921117 0.373967,-2.536846 -0.673138,-2.80865 -0.392663,-0.0906 -0.54225,-0.377507 -0.205681,-0.377507 0.336569,0 1.458464,-0.921116 1.645447,-1.343924 0.280475,-0.6191114 -0.186983,-1.2835234 -1.159292,-1.6761304 -1.084499,-0.422807 -2.842136,-0.392606 -4.337998,0.0604 z"
       id="path232"
       style="stroke-width:0.0168032" fill="currentColor" />
    <path
       d="M 11.598555,9.7154066 C 10.869322,10.48552 9.8409175,11.965346 9.4108585,12.856262 c -0.317872,0.634211 -0.355267,0.890915 -0.205682,1.16272 0.243078,0.437908 0.710534,0.453008 0.8788195,0 0.299172,-0.785213 1.495861,-2.612346 2.26249,-3.457961 0.841422,-0.9211164 0.860119,-1.0570194 0.11219,-1.2382224 -0.317872,-0.0755 -0.504853,0 -0.860121,0.392608 z"
       id="path242"
       style="stroke-width:0.0168032" fill="currentColor" />
    <path
       d="m 9.4822275,7.5430026 c -1.261122,-0.09758 -3.023661,-0.332715 -3.9359382,-0.511171 -1.295995,-0.293808 -1.764644,-0.308945 -2.255511,-0.07747 -0.548654,0.25726 -0.842528,0.21397 -1.852385,-0.30717 -1.51407999,-0.757109 -1.66593999,-0.95097 -1.21627399,-1.600095 0.42253,-0.574726 0.246346,-0.595779 4.02437499,0.534027 1.500288,0.435466 3.3719802,0.800407 4.1526162,0.9253 4.1091425,0.857931 4.3563505,-0.137329 5.6361745,-0.409378 0.988763,-0.216929 1.058505,0.17553 0.08728,1.007514 -0.741427,0.679643 -0.91691,0.683191 -4.6403805,0.438475 z"
       id="path292-4-6"
       style="stroke-width:0.0268319"
       sodipodi:nodetypes="cccccccccc" fill="currentColor" />
    <path
       d="m 2.5480473,13.85422 c -0.220851,-0.815898 -0.101386,-2.6263 0.87003,-4.8873474 0.316643,-0.759255 0.853854,-2.117865 1.183893,-3.034291 0.472773,-1.408736 0.479702,-1.705017 0.01524,-1.898716 -0.315719,-0.111517 -1.037922,-0.505716 -1.634485,-0.869219 -0.852696,-0.529222 -1.093798,-0.817359 -1.208831,-1.510152 -0.218716,-1.14218098 0.458226,-1.72172198 1.931502,-1.64828398 1.4518,0.05673 2.309345,0.690286 2.9791202,2.18334098 0,0 0.197713,0.82481 0.597522,0.928324 0.43088,0.111559 1.527751,0.255631 1.527751,0.255631 3.2375635,0.172136 5.2319275,-0.50941 5.5049165,0.909623 0.223564,1.246512 -0.681047,0.05513 -1.412958,-0.03097 -0.75177,-0.08842 -1.645741,-0.345179 -3.7729815,-0.10632 -1.018903,0.103062 -1.863058,0.242707 -1.96237,0.333049 -0.09931,0.09034 -0.477033,0.932237 -0.684666,1.809807 -0.2290992,0.860863 -0.8526982,2.588025 -1.3748972,3.8242394 -0.951549,2.242981 -1.22616,3.906421 -0.689184,4.324127 0.365143,0.284039 0.404869,0.247902 0.899119,-1.144125 0.147976,-0.380391 0.667576,-1.139119 0.863535,-0.923093 0.5863362,0.542265 0.4170662,0.797773 0.2676652,1.074739 -0.3381242,0.742547 -0.5244042,1.138418 -0.5700072,1.229073 -0.797428,1.585235 -2.390137,0.513019 -2.813261,0.05172 -0.12396,-0.169327 -0.308937,-0.267258 -0.516653,-0.87116 z M 4.7061343,2.8293196 c 0.623353,0.04916 0.643216,0.03108 0.44875,-0.589451 -0.344355,-1.172878 -0.648296,-1.47634698 -1.519698,-1.51734098 -0.747379,-0.04507 -0.787104,-0.0089 -0.761238,0.54748398 0.03234,0.69553 0.937686,1.466829 1.832186,1.559308 z"
       id="path270"
       style="stroke-width:0.0268319"
       sodipodi:nodetypes="ccccccccsscscsccscccscccccscc" fill="currentColor" />
  </g>
</svg>
